Coordinates
version=1
nRows=38
nColumns=38
inDegrees=no

Units are S.I. units (second, meters, Newtons, ...)
If the header above contains a line with 'inDegrees', this indicates whether rotational values are in degrees (yes) or radians (no).

endheader
time	pelvis_tilt	pelvis_list	pelvis_rotation	pelvis_tx	pelvis_ty	pelvis_tz	hip_flexion_r	hip_adduction_r	hip_rotation_r	knee_angle_r	ankle_angle_r	subtalar_angle_r	mtp_angle_r	hip_flexion_l	hip_adduction_l	hip_rotation_l	knee_angle_l	ankle_angle_l	subtalar_angle_l	mtp_angle_l	lumbar_extension	lumbar_bending	lumbar_rotation	arm_flex_r	arm_add_r	arm_rot_r	elbow_flex_r	pro_sup_r	wrist_flex_r	wrist_dev_r	arm_flex_l	arm_add_l	arm_rot_l	elbow_flex_l	pro_sup_l	wrist_flex_l	wrist_dev_l
1.43	2.54724	1.54448	2.48797	0.768928	0.919521	0.954508	-0.191962	-0.017064	-0.185297	0.123542	0.13279	0	0	0.326351	0.0258894	-0.137566	0.396327	0.00725361	0	0	-0.019252	0.0562098	0.317573	0.520555	-0.0167491	0.37884	0.757947	1.5708	0	0	-0.262988	-0.207479	0.384193	0.672328	0.946017	0	0
1.44	2.59187	1.54295	2.43744	0.771806	0.912828	0.954711	-0.193613	-0.021283	-0.183573	0.130678	0.131257	0	0	0.32232	0.0260781	-0.139629	0.402375	0.0161894	0	0	-0.0149659	0.0536435	0.322203	0.506035	-0.0170105	0.383046	0.76984	1.5708	0	0	-0.26561	-0.209262	0.380752	0.671643	0.942085	0	0
1.45	2.63869	1.54055	2.38369	0.77467	0.906225	0.954916	-0.193364	-0.0265418	-0.18133	0.139328	0.129755	0	0	0.31664	0.0268675	-0.143679	0.40362	0.0236957	0	0	-0.0100616	0.0504616	0.327387	0.491241	-0.0176758	0.38885	0.782451	1.5708	0	0	-0.268926	-0.210631	0.375781	0.671776	0.938319	0	0
1.46	2.6896	1.53747	2.32554	0.777493	0.899719	0.955099	-0.191528	-0.0322093	-0.179147	0.149065	0.12823	0	0	0.310484	0.0278687	-0.148797	0.402139	0.0301911	0	0	-0.00453249	0.0469065	0.332232	0.476095	-0.0185417	0.395715	0.795509	1.5708	0	0	-0.272852	-0.21202	0.369926	0.672791	0.935322	0	0
1.47	2.73211	1.53362	2.27523	0.780242	0.893278	0.955273	-0.188395	-0.0386113	-0.177247	0.159709	0.126876	0	0	0.3041	0.029152	-0.155487	0.399003	0.0363482	0	0	0.00139178	0.0426697	0.337029	0.459293	-0.0198208	0.403354	0.810885	1.5708	0	0	-0.277055	-0.2133	0.362793	0.674254	0.931834	0	0
1.48	2.76383	1.52935	2.23568	0.782936	0.88691	0.955459	-0.184841	-0.0454001	-0.175835	0.170313	0.125207	0	0	0.297356	0.0309792	-0.162236	0.394526	0.0421163	0	0	0.00752697	0.0378729	0.340671	0.440982	-0.0209985	0.410647	0.827754	1.5708	0	0	-0.281609	-0.214418	0.354084	0.675529	0.927743	0	0
1.49	2.78634	1.52509	2.20535	0.785532	0.880619	0.955691	-0.1814	-0.0522164	-0.174664	0.180525	0.123169	0	0	0.290023	0.0331016	-0.168362	0.388923	0.0477394	0	0	0.0133293	0.0327147	0.343342	0.421186	-0.0221061	0.415707	0.847185	1.5708	0	0	-0.286115	-0.215454	0.345089	0.676207	0.923631	0	0
1.5	2.80386	1.52106	2.18014	0.78802	0.874409	0.955973	-0.178277	-0.0586738	-0.173091	0.190165	0.12048	0	0	0.282028	0.0354665	-0.172664	0.382348	0.0531883	0	0	0.0185034	0.027376	0.345322	0.400291	-0.0225562	0.415888	0.869421	1.5708	0	0	-0.290166	-0.216643	0.33646	0.676597	0.919925	0	0
1.51	2.81294	1.51742	2.16365	0.790446	0.868324	0.956288	-0.175437	-0.0650624	-0.171668	0.199766	0.117365	0	0	0.273449	0.0381014	-0.175804	0.375397	0.0582048	0	0	0.0227352	0.0219431	0.346454	0.379733	-0.0220085	0.411885	0.89205	1.5708	0	0	-0.293638	-0.218046	0.329069	0.676887	0.917056	0	0
1.52	2.81468	1.51385	2.15465	0.79282	0.862321	0.956588	-0.172611	-0.0717545	-0.170363	0.209584	0.114292	0	0	0.264365	0.041123	-0.178918	0.367702	0.0627646	0	0	0.0263149	0.016181	0.347356	0.359468	-0.0203935	0.403939	0.914766	1.5708	0	0	-0.296418	-0.219705	0.323132	0.676698	0.914904	0	0
1.53	2.81645	1.51084	2.14587	0.795085	0.856446	0.956849	-0.169951	-0.0780382	-0.168879	0.219605	0.11125	0	0	0.254605	0.0440792	-0.181508	0.359192	0.0670144	0	0	0.0288863	0.0107222	0.347965	0.340329	-0.0178639	0.394501	0.936493	1.5708	0	0	-0.298247	-0.221759	0.319104	0.676179	0.913088	0	0
1.54	2.82294	1.50804	2.13257	0.797304	0.850714	0.957043	-0.166951	-0.0839164	-0.166892	0.229843	0.108239	0	0	0.24477	0.0467864	-0.184255	0.350076	0.0709999	0	0	0.0312395	0.00579062	0.34794	0.322588	-0.0146929	0.385366	0.955992	1.5708	0	0	-0.299642	-0.223847	0.316146	0.675491	0.910944	0	0
1.55	2.82843	1.50538	2.12084	0.799588	0.845157	0.957197	-0.163977	-0.0897517	-0.164651	0.240058	0.105195	0	0	0.234747	0.0497645	-0.18686	0.34033	0.0745824	0	0	0.033403	0.00119779	0.346793	0.306524	-0.0112028	0.376901	0.971929	1.5708	0	0	-0.300665	-0.225621	0.313761	0.674322	0.908164	0	0
1.56	2.83567	1.50288	2.10744	0.801812	0.839749	0.957288	-0.160589	-0.0952568	-0.161666	0.250699	0.102262	0	0	0.22466	0.0526743	-0.189301	0.330092	0.0779523	0	0	0.0355345	-0.00301996	0.345192	0.292019	-0.00739873	0.369522	0.984263	1.5708	0	0	-0.301554	-0.227763	0.313034	0.67357	0.904815	0	0
1.57	2.84301	1.50046	2.09403	0.803975	0.834508	0.957319	-0.156912	-0.100536	-0.157836	0.261539	0.0993374	0	0	0.214694	0.0556109	-0.191504	0.319667	0.0810245	0	0	0.0375506	-0.00691816	0.343725	0.278472	-0.00339205	0.362936	0.994108	1.5708	0	0	-0.301674	-0.2302	0.314555	0.672638	0.901546	0	0
1.58	2.85067	1.49851	2.08054	0.806066	0.829419	0.957316	-0.153772	-0.104972	-0.152396	0.271455	0.0956296	0	0	0.204659	0.0581636	-0.194043	0.309485	0.0841567	0	0	0.0389957	-0.0102481	0.34252	0.265786	0.000847877	0.356769	1.00196	1.5708	0	0	-0.300675	-0.232658	0.31777	0.671006	0.898429	0	0
1.59	2.85804	1.49705	2.06735	0.808063	0.824483	0.95728	-0.150658	-0.108933	-0.146229	0.281654	0.0918065	0	0	0.194455	0.0603334	-0.196824	0.299529	0.0874491	0	0	0.0397136	-0.0131242	0.341933	0.253902	0.0050992	0.351803	1.00907	1.5708	0	0	-0.298676	-0.235363	0.32277	0.669575	0.895385	0	0
1.6	2.86666	1.49541	2.05412	0.810187	0.819651	0.957167	-0.146894	-0.113063	-0.142522	0.292975	0.0884955	0	0	0.184813	0.0627509	-0.198699	0.289958	0.0908071	0	0	0.0408213	-0.0156921	0.340487	0.242645	0.00936934	0.349589	1.0162	1.5708	0	0	-0.29656	-0.237807	0.32699	0.668225	0.893186	0	0
1.61	2.87173	1.49388	2.04501	0.81235	0.814978	0.957041	-0.142671	-0.11756	-0.140125	0.305527	0.0855482	0	0	0.175283	0.0654547	-0.200527	0.280544	0.0938281	0	0	0.0416026	-0.0181969	0.33884	0.231972	0.013306	0.348814	1.02437	1.5708	0	0	-0.294009	-0.239875	0.330605	0.666659	0.890592	0	0
1.62	2.87919	1.49238	2.03369	0.814411	0.810432	0.956867	-0.137549	-0.121724	-0.137688	0.3192	0.0825165	0	0	0.166182	0.0679183	-0.202035	0.271397	0.0967257	0	0	0.0424434	-0.0204507	0.337316	0.221443	0.0172651	0.346506	1.03282	1.5708	0	0	-0.291346	-0.241882	0.334091	0.665273	0.888842	0	0
1.63	2.89181	1.49109	2.01772	0.816386	0.80603	0.956682	-0.132591	-0.124608	-0.133214	0.332109	0.0785642	0	0	0.157485	0.0697117	-0.203488	0.262668	0.0996287	0	0	0.0431543	-0.0221983	0.335782	0.211049	0.0211248	0.343653	1.04299	1.5708	0	0	-0.288497	-0.244236	0.338404	0.664635	0.889508	0	0
1.64	2.90635	1.49042	2.00029	0.818286	0.801752	0.956558	-0.12895	-0.125996	-0.125647	0.342961	0.0729337	0	0	0.148349	0.070961	-0.204445	0.253792	0.102211	0	0	0.0432051	-0.023498	0.334449	0.200541	0.0247531	0.338298	1.05427	1.5708	0	0	-0.285031	-0.246654	0.344535	0.663855	0.89565	0	0
1.65	2.9229	1.48911	1.9821	0.820235	0.797669	0.956328	-0.121782	-0.128687	-0.123749	0.359579	0.0691237	0	0	0.140888	0.0723028	-0.204576	0.246441	0.105308	0	0	0.0441167	-0.0246799	0.331227	0.191691	0.0282008	0.33432	1.06268	1.5708	0	0	-0.283075	-0.248404	0.34498	0.664854	0.899175	0	0
1.66	2.93693	1.48792	1.9669	0.82221	0.79367	0.9561	-0.113197	-0.132022	-0.123655	0.37928	0.0654945	0	0	0.133021	0.0739729	-0.203613	0.238384	0.107896	0	0	0.0449729	-0.025759	0.32774	0.183555	0.0315672	0.330073	1.06986	1.5708	0	0	-0.28194	-0.250317	0.34309	0.667487	0.901049	0	0
1.67	2.95029	1.4871	1.95282	0.824172	0.789758	0.955895	-0.104022	-0.135164	-0.123076	0.40069	0.0614203	0	0	0.124823	0.0755566	-0.20178	0.230179	0.110113	0	0	0.0455638	-0.0265521	0.323766	0.177349	0.034637	0.327341	1.0743	1.5708	0	0	-0.281393	-0.251806	0.338774	0.671035	0.900726	0	0
1.68	2.96114	1.4864	1.94184	0.826152	0.78593	0.955664	-0.0936722	-0.138651	-0.122844	0.424487	0.0571354	0	0	0.116573	0.0773641	-0.199071	0.22202	0.112068	0	0	0.0462474	-0.027312	0.319058	0.173	0.0371762	0.326682	1.0763	1.5708	0	0	-0.281428	-0.253019	0.335011	0.675403	0.901322	0	0
1.69	2.96655	1.48605	1.93726	0.828205	0.782251	0.955465	-0.0829503	-0.142476	-0.122365	0.449643	0.0520423	0	0	0.108044	0.0796637	-0.195457	0.213925	0.113545	0	0	0.0464106	-0.0281721	0.313479	0.169799	0.0389852	0.327686	1.07837	1.5708	0	0	-0.28153	-0.254105	0.332725	0.679859	0.9044	0	0
1.7	2.96858	1.48604	1.93617	0.830164	0.778746	0.955303	-0.0713253	-0.146235	-0.120088	0.476638	0.0463534	0	0	0.0993301	0.0819591	-0.191865	0.205942	0.114796	0	0	0.0459078	-0.029136	0.307804	0.167619	0.0402838	0.328352	1.08046	1.5708	0	0	-0.281628	-0.255402	0.329559	0.684602	0.908266	0	0
1.71	2.96776	1.48635	1.93851	0.832179	0.775359	0.955152	-0.0588432	-0.150187	-0.117424	0.505709	0.0399998	0	0	0.0901706	0.0845366	-0.187537	0.197653	0.115864	0	0	0.0449706	-0.0300754	0.302008	0.166104	0.04033	0.328949	1.08335	1.5708	0	0	-0.281563	-0.256449	0.325626	0.689174	0.911623	0	0
1.72	2.96364	1.4864	1.94378	0.833967	0.772156	0.954943	-0.0441764	-0.154201	-0.11273	0.537573	0.032903	0	0	0.0812998	0.087084	-0.183833	0.189212	0.116749	0	0	0.0438599	-0.0316335	0.297365	0.16555	0.0400917	0.32853	1.08656	1.5708	0	0	-0.280747	-0.258223	0.324743	0.693961	0.917892	0	0
1.73	2.96036	1.48664	1.94894	0.835777	0.769076	0.954689	-0.0287732	-0.157787	-0.107324	0.570728	0.024698	0	0	0.0727482	0.0893803	-0.179984	0.181507	0.117873	0	0	0.0425297	-0.0328562	0.292724	0.165467	0.0395736	0.327515	1.08987	1.5708	0	0	-0.279379	-0.260171	0.325349	0.698154	0.925506	0	0
1.74	2.95531	1.48723	1.95734	0.83777	0.766079	0.954428	-0.0131159	-0.161311	-0.102468	0.60507	0.0153813	0	0	0.064115	0.0918585	-0.17476	0.174319	0.119046	0	0	0.0409966	-0.0338404	0.286949	0.165665	0.0389152	0.326301	1.09297	1.5708	0	0	-0.278111	-0.261764	0.325113	0.701763	0.933476	0	0
1.75	2.94639	1.48781	1.97107	0.839948	0.763231	0.954152	0.00318702	-0.165285	-0.0986184	0.64064	0.0052108	0	0	0.0560188	0.0947996	-0.168446	0.168057	0.120231	0	0	0.0394198	-0.0348847	0.280015	0.166347	0.0378133	0.324926	1.09587	1.5708	0	0	-0.276718	-0.263038	0.325135	0.704663	0.939449	0	0
1.76	2.93804	1.48764	1.98396	0.841797	0.760519	0.953788	0.0220037	-0.168731	-0.092937	0.67822	-0.00545918	0	0	0.0498827	0.0972947	-0.163386	0.163773	0.122191	0	0	0.0384828	-0.0366089	0.273711	0.167954	0.0374466	0.323141	1.09779	1.5708	0	0	-0.275092	-0.265335	0.327245	0.707806	0.947003	0	0
1.77	2.93137	1.48761	1.99508	0.8434	0.757964	0.953422	0.0418037	-0.171023	-0.0854756	0.716549	-0.0169182	0	0	0.0446655	0.099089	-0.159205	0.160995	0.124691	0	0	0.0371124	-0.0383582	0.267862	0.17062	0.0374156	0.321628	1.0994	1.5708	0	0	-0.272949	-0.267864	0.329005	0.710542	0.952597	0	0
1.78	2.92378	1.48807	2.00829	0.84509	0.75545	0.953106	0.0608931	-0.172818	-0.0785401	0.754538	-0.0295469	0	0	0.0391024	0.100767	-0.154212	0.158519	0.126994	0	0	0.0353579	-0.0398034	0.261332	0.173503	0.037574	0.319609	1.1008	1.5708	0	0	-0.270653	-0.270239	0.331869	0.712597	0.958891	0	0
1.79	2.91627	1.48906	2.02258	0.846871	0.752951	0.952855	0.0793334	-0.174109	-0.0725266	0.792221	-0.0434143	0	0	0.032983	0.102301	-0.147696	0.155957	0.128989	0	0	0.0332732	-0.0408018	0.254132	0.176364	0.0381434	0.315483	1.10105	1.5708	0	0	-0.268325	-0.272043	0.333582	0.71352	0.963401	0	0
1.8	2.9097	1.49069	2.03694	0.848689	0.750511	0.9527	0.0973586	-0.174659	-0.067149	0.829721	-0.0581173	0	0	0.0264428	0.103464	-0.13981	0.153542	0.130733	0	0	0.0306494	-0.0412418	0.246623	0.179501	0.0387586	0.309974	1.10036	1.5708	0	0	-0.265528	-0.273415	0.334799	0.713245	0.965298	0	0
